<?xml version="1.0" encoding="utf-8"?>
<!-- Generator: Adobe Illustrator 16.0.0, SVG Export Plug-In . SVG Version: 6.00 Build 0)  -->
<!DOCTYPE svg PUBLIC "-//W3C//DTD SVG 1.1//EN" "http://www.w3.org/Graphics/SVG/1.1/DTD/svg11.dtd">
<svg version="1.1" id="Layer_1" xmlns="http://www.w3.org/2000/svg" xmlns:xlink="http://www.w3.org/1999/xlink" x="0px" y="0px"
	 width="300px" height="300px" viewBox="0 0 300 300" enable-background="new 0 0 300 300" xml:space="preserve">
<path fill-rule="evenodd" clip-rule="evenodd" d="M204.677,165.92c12.446,0,22.571,10.125,22.571,22.571
	c0,12.447-10.125,22.571-22.571,22.571c-12.445,0-22.571-10.124-22.571-22.571C182.105,176.045,192.231,165.92,204.677,165.92z
	 M249.862,127.631c0-3.113-0.878-5.926-3.992-5.926H52.889c-3.114,0-5.307,2.813-5.307,5.926v84.239
	c0,12.498,9.8,21.734,22.296,21.734h159.276c12.348,0,20.708-9.113,20.708-21.459V127.631z M264.928,61.451
	c12.498,0,23.669,9.505,23.669,22.001v135.433c0,30.342-25.638,55.605-55.978,55.605H65.05c-30.342,0-54.05-25.264-54.05-55.605
	V83.452c0-12.496,9.243-22.001,21.741-22.001l21.616-0.603c2.438,0,4.146-2.309,4.146-4.745c0,0-0.454-6.673-0.454-7.532
	c0-12.393,9.44-22.483,21.808-22.571C91.946,25.917,101.38,36.1,101.38,48.189v7.725c0,2.701,2.694,5.537,5.395,5.537h81.934
	c2.71,0,5.203-2.826,5.203-5.537v-7.26c0-12.124,9.383-22.352,21.505-22.608c12.67-0.269,22.759,9.998,22.759,22.605
	c0,0.856-0.312,7.607-0.312,7.607c0,2.438,1.89,4.59,4.33,4.59L264.928,61.451z"/>
</svg>
