<?xml version="1.0" encoding="utf-8"?>
<!-- Generator: Adobe Illustrator 16.0.0, SVG Export Plug-In . SVG Version: 6.00 Build 0)  -->
<!DOCTYPE svg PUBLIC "-//W3C//DTD SVG 1.1//EN" "http://www.w3.org/Graphics/SVG/1.1/DTD/svg11.dtd">
<svg version="1.1" id="Layer_1" xmlns="http://www.w3.org/2000/svg" xmlns:xlink="http://www.w3.org/1999/xlink" x="0px" y="0px"
	 width="300px" height="300px" viewBox="0 0 300 300" enable-background="new 0 0 300 300" xml:space="preserve">
<path d="M162.697,208.195l-13.9-13.898l-12.38,12.38c-3.339,3.339-8.417,4.517-12.562,2.251c-6.031-3.297-7.066-11.445-2.492-16.02
	l13.023-13.023l-13.497-13.494c-4.571-4.572-2.983-13.277,3.048-16.572c4.145-2.266,9.777-1.641,13.117,1.699l12.85,12.85
	l13.906-13.908c4.573-4.572,12.723-3.537,16.02,2.49c2.268,4.146,1.088,9.227-2.252,12.566l-13.264,13.264l14.545,14.543
	c4.572,4.572,2.986,13.273-3.043,16.569C171.67,212.159,166.037,211.535,162.697,208.195z M288.597,83.452v135.433
	c0,30.342-25.638,55.605-55.978,55.605H65.05c-30.343,0-54.05-25.264-54.05-55.605V83.452c0-12.496,9.243-22.001,21.74-22.001
	l21.617-0.603c2.438,0,4.146-2.309,4.146-4.745c0,0-0.455-6.673-0.455-7.532c0-12.393,9.441-22.483,21.809-22.571
	c12.089-0.084,21.523,10.099,21.523,22.188v7.725c0,2.701,2.693,5.537,5.395,5.537h81.934c2.71,0,5.203-2.826,5.203-5.537v-7.26
	c0-12.124,9.383-22.352,21.505-22.608c12.67-0.269,22.759,9.998,22.759,22.605c0,0.856-0.312,7.607-0.312,7.607
	c0,2.438,1.89,4.59,4.33,4.59l22.734,0.603C277.426,61.451,288.597,70.956,288.597,83.452z M249.862,127.631
	c0-3.113-0.878-5.926-3.992-5.926H52.889c-3.113,0-5.307,2.813-5.307,5.926v84.238c0,12.498,9.801,21.734,22.297,21.734h159.275
	c12.348,0,20.708-9.113,20.708-21.459V127.631z"/>
</svg>
