<?xml version="1.0" encoding="utf-8"?>
<!-- Generator: Adobe Illustrator 16.0.0, SVG Export Plug-In . SVG Version: 6.00 Build 0)  -->
<!DOCTYPE svg PUBLIC "-//W3C//DTD SVG 1.1//EN" "http://www.w3.org/Graphics/SVG/1.1/DTD/svg11.dtd">
<svg version="1.1" id="Layer_1" xmlns="http://www.w3.org/2000/svg" xmlns:xlink="http://www.w3.org/1999/xlink" x="0px" y="0px"
	 width="300px" height="300px" viewBox="0 0 300 300" enable-background="new 0 0 300 300" xml:space="preserve">
<path d="M179.145,190.395h-19.656v17.508c0.002,4.723-2.758,9.146-7.291,10.475c-6.594,1.934-13.09-3.096-13.09-9.564v-18.418
	l-19.085,0.002c-6.466-0.002-11.498-7.28-9.563-13.875c1.329-4.531,5.754-8.072,10.477-8.072h18.172l-0.002-19.668
	c0.001-6.468,6.497-11.498,13.09-9.567c4.537,1.329,7.292,5.755,7.295,10.479l-0.002,18.756h20.568
	c6.466,0,11.496,7.273,9.565,13.867C188.293,186.852,183.869,190.393,179.145,190.395z M288.597,83.452v135.433
	c0,30.342-25.638,55.605-55.978,55.605H65.05c-30.343,0-54.05-25.264-54.05-55.605V83.452c0-12.496,9.243-22.001,21.74-22.001
	l21.617-0.603c2.438,0,4.146-2.309,4.146-4.745c0,0-0.455-6.673-0.455-7.532c0-12.393,9.441-22.483,21.809-22.571
	c12.089-0.084,21.523,10.099,21.523,22.188v7.725c0,2.701,2.693,5.537,5.395,5.537h81.934c2.71,0,5.203-2.826,5.203-5.537v-7.26
	c0-12.124,9.383-22.352,21.505-22.608c12.67-0.269,22.759,9.998,22.759,22.605c0,0.856-0.312,7.607-0.312,7.607
	c0,2.438,1.89,4.59,4.33,4.59l22.734,0.603C277.426,61.451,288.597,70.956,288.597,83.452z M249.862,127.631
	c0-3.113-0.878-5.926-3.992-5.926H52.889c-3.113,0-5.307,2.813-5.307,5.926v84.238c0,12.498,9.801,21.734,22.297,21.734h159.275
	c12.348,0,20.708-9.113,20.708-21.459V127.631z"/>
</svg>
