<?xml version="1.0" encoding="utf-8"?>
<!-- Generator: Adobe Illustrator 16.0.0, SVG Export Plug-In . SVG Version: 6.00 Build 0)  -->
<!DOCTYPE svg PUBLIC "-//W3C//DTD SVG 1.1//EN" "http://www.w3.org/Graphics/SVG/1.1/DTD/svg11.dtd">
<svg version="1.1" id="Layer_1" xmlns="http://www.w3.org/2000/svg" xmlns:xlink="http://www.w3.org/1999/xlink" x="0px" y="0px"
	 width="300px" height="300px" viewBox="0 0 300 300" enable-background="new 0 0 300 300" xml:space="preserve">
<path fill-rule="evenodd" clip-rule="evenodd" d="M149.795,139.198c12.259,0,22.231,9.975,22.231,22.231
	c0,12.26-9.972,22.231-22.231,22.231s-22.233-9.972-22.233-22.231C127.562,149.173,137.536,139.198,149.795,139.198
	 M149.795,214.217c29.107,0,52.785-23.68,52.785-52.787c0-29.104-23.678-52.784-52.785-52.784s-52.784,23.68-52.784,52.784
	C97.011,190.537,120.688,214.217,149.795,214.217 M258.964,77.671c12.499,0,22.569,10.252,22.569,22.75v122.763
	c0,12.496-10.07,22.337-22.569,22.337H40.975C28.479,245.521,19,235.68,19,223.184V100.421c0-12.498,9.479-22.75,21.975-22.75h52.35
	C93.325,66.912,103.148,54,115.27,54h71.962c12.119,0,21.945,12.912,21.945,23.671H258.964"/>
</svg>
