<?xml version="1.0" encoding="utf-8"?>
<!-- Generator: Adobe Illustrator 16.0.0, SVG Export Plug-In . SVG Version: 6.00 Build 0)  -->
<!DOCTYPE svg PUBLIC "-//W3C//DTD SVG 1.1//EN" "http://www.w3.org/Graphics/SVG/1.1/DTD/svg11.dtd">
<svg version="1.1" id="Layer_1" xmlns="http://www.w3.org/2000/svg" xmlns:xlink="http://www.w3.org/1999/xlink" x="0px" y="0px"
	 width="300px" height="300px" viewBox="0 0 300 300" enable-background="new 0 0 300 300" xml:space="preserve">
<path fill-rule="evenodd" clip-rule="evenodd" d="M223.703,85.135c-3.9,0-7.437,1.566-10.03,4.095l-90.499,90.216l-36.542-37.733
	c-2.6-2.559-6.162-4.144-10.089-4.144c-7.93,0-14.38,6.452-14.38,14.381c0,4.013,1.655,7.642,4.314,10.253l46.795,47.452
	c2.599,2.447,6.073,3.96,9.903,3.96c3.767,0,7.189-1.467,9.756-3.845l100.782-99.938c2.689-2.621,4.372-6.273,4.372-10.317
	C238.084,91.587,231.634,85.135,223.703,85.135z M150,300c82.843,0,150-67.157,150-150S232.843,0,150,0S0,67.157,0,150
	S67.157,300,150,300z"/>
</svg>
