<?xml version="1.0" encoding="utf-8"?>
<!-- Generator: Adobe Illustrator 16.0.0, SVG Export Plug-In . SVG Version: 6.00 Build 0)  -->
<!DOCTYPE svg PUBLIC "-//W3C//DTD SVG 1.1//EN" "http://www.w3.org/Graphics/SVG/1.1/DTD/svg11.dtd">
<svg version="1.1" id="Layer_1" xmlns="http://www.w3.org/2000/svg" xmlns:xlink="http://www.w3.org/1999/xlink" x="0px" y="0px"
	 width="300px" height="300px" viewBox="0 0 300 300" enable-background="new 0 0 300 300" xml:space="preserve">
<path d="M105.744,271.646c6.252,0,11.899-2.601,15.94-6.768l0.012,0.01l88.846-99.771v-0.034c3.675-3.968,5.943-9.26,5.943-15.083
	c0-5.92-2.34-11.291-6.123-15.278v-0.03l-88.76-99.677l-0.006,0.007c-4.039-4.11-9.647-6.669-15.853-6.669
	c-12.257,0-22.229,9.972-22.229,22.231c0,6.071,2.45,11.577,6.409,15.593l-0.004,0.004L163.661,150l-73.816,83.91
	c-3.91,4.009-6.33,9.477-6.33,15.506C83.515,261.675,93.487,271.646,105.744,271.646"/>
</svg>
