<?xml version="1.0" encoding="utf-8"?>
<!-- Generator: Adobe Illustrator 16.0.0, SVG Export Plug-In . SVG Version: 6.00 Build 0)  -->
<!DOCTYPE svg PUBLIC "-//W3C//DTD SVG 1.1//EN" "http://www.w3.org/Graphics/SVG/1.1/DTD/svg11.dtd">
<svg version="1.1" id="Layer_1" xmlns="http://www.w3.org/2000/svg" xmlns:xlink="http://www.w3.org/1999/xlink" x="0px" y="0px"
	 width="300px" height="300px" viewBox="0 0 300 300" enable-background="new 0 0 300 300" xml:space="preserve">
<path d="M194.254,271.646c12.258,0,22.229-9.972,22.229-22.23c0-6.029-2.42-11.497-6.33-15.506L136.337,150l73.742-83.819
	l-0.004-0.004c3.959-4.016,6.409-9.521,6.409-15.593c0-12.259-9.973-22.231-22.229-22.231c-6.206,0-11.813,2.559-15.853,6.669
	l-0.006-0.007l-88.76,99.677v0.03c-3.783,3.987-6.123,9.358-6.123,15.278c0,5.823,2.268,11.115,5.942,15.083v0.034l88.847,99.771
	l0.012-0.011C182.355,269.045,188.002,271.646,194.254,271.646"/>
</svg>
