<?xml version="1.0" encoding="utf-8"?>
<!-- Generator: Adobe Illustrator 16.0.0, SVG Export Plug-In . SVG Version: 6.00 Build 0)  -->
<!DOCTYPE svg PUBLIC "-//W3C//DTD SVG 1.1//EN" "http://www.w3.org/Graphics/SVG/1.1/DTD/svg11.dtd">
<svg version="1.1" id="Layer_1" xmlns="http://www.w3.org/2000/svg" xmlns:xlink="http://www.w3.org/1999/xlink" x="0px" y="0px"
	 width="300px" height="300px" viewBox="0 0 300 300" enable-background="new 0 0 300 300" xml:space="preserve">
<path d="M61.557,261.831c0,12.257-9.972,22.231-22.231,22.231c-12.26,0-22.231-9.976-22.231-22.231
	c0-12.258,9.971-22.231,22.231-22.231C51.585,239.6,61.557,249.574,61.557,261.831z M283.096,36.868v129.511
	c0,12.498-9.705,22.926-22.203,22.926H122.552c-18.048,0-35.515,7.432-47.161,21.219C69.32,217.711,60.242,222.2,50.093,222.2
	c-18.255,0-33.058-13.527-33.092-32.896V36.868C17,24.369,27.129,15,39.625,15h221.268C273.391,15,283.096,24.369,283.096,36.868z
	 M101.972,101.264c0-12.257-9.972-22.232-22.231-22.232c-12.257,0-22.231,9.974-22.231,22.231c0,12.257,9.974,22.232,22.231,22.232
	C92,123.495,101.972,113.521,101.972,101.264z M168.605,101.264c0-12.257-9.975-22.231-22.234-22.231
	c-12.259,0-22.231,9.974-22.231,22.231c0,12.257,9.971,22.231,22.231,22.231C158.631,123.495,168.605,113.521,168.605,101.264z
	 M235.234,101.264c0-12.257-9.976-22.231-22.231-22.231c-12.26,0-22.231,9.974-22.231,22.231c0,12.257,9.972,22.231,22.231,22.231
	C225.26,123.495,235.234,113.521,235.234,101.264z"/>
</svg>
