<?xml version="1.0" encoding="utf-8"?>
<!-- Generator: Adobe Illustrator 16.0.0, SVG Export Plug-In . SVG Version: 6.00 Build 0)  -->
<!DOCTYPE svg PUBLIC "-//W3C//DTD SVG 1.1//EN" "http://www.w3.org/Graphics/SVG/1.1/DTD/svg11.dtd">
<svg version="1.1" id="Layer_1" xmlns="http://www.w3.org/2000/svg" xmlns:xlink="http://www.w3.org/1999/xlink" x="0px" y="0px"
	 width="300px" height="300px" viewBox="0 0 300 300" enable-background="new 0 0 300 300" xml:space="preserve">
<path d="M76.221,243.222c0,10.226-8.32,18.548-18.548,18.548c-10.229,0-18.547-8.323-18.547-18.548
	c0-10.227,8.318-18.547,18.547-18.547C67.901,224.675,76.221,232.995,76.221,243.222z M261.049,55.537v108.05
	c0,10.427-8.096,19.127-18.523,19.127H127.109c-15.058,0-29.63,6.2-39.347,17.702c-5.065,5.998-12.639,9.742-21.105,9.742
	c-15.23,0-27.58-11.286-27.608-27.444V55.537c-0.001-10.428,8.449-18.245,18.875-18.245h184.602
	C252.953,37.292,261.049,45.109,261.049,55.537z M109.939,109.262c0-10.226-8.32-18.548-18.547-18.548s-18.548,8.321-18.548,18.548
	c0,10.226,8.321,18.548,18.548,18.548S109.939,119.488,109.939,109.262z M165.531,109.262c0-10.226-8.322-18.547-18.55-18.547
	c-10.229,0-18.548,8.321-18.548,18.547c0,10.227,8.318,18.548,18.548,18.548C157.209,127.81,165.531,119.488,165.531,109.262z
	 M221.119,109.262c0-10.226-8.324-18.547-18.547-18.547c-10.229,0-18.549,8.321-18.549,18.547c0,10.227,8.32,18.548,18.549,18.548
	C212.797,127.81,221.119,119.488,221.119,109.262z"/>
</svg>
