<?xml version="1.0" encoding="utf-8"?>
<!-- Generator: Adobe Illustrator 16.0.0, SVG Export Plug-In . SVG Version: 6.00 Build 0)  -->
<!DOCTYPE svg PUBLIC "-//W3C//DTD SVG 1.1//EN" "http://www.w3.org/Graphics/SVG/1.1/DTD/svg11.dtd">
<svg version="1.1" id="Layer_1" xmlns="http://www.w3.org/2000/svg" xmlns:xlink="http://www.w3.org/1999/xlink" x="0px" y="0px"
	 width="300px" height="300px" viewBox="0 0 300 300" enable-background="new 0 0 300 300" xml:space="preserve">
<path fill-rule="evenodd" clip-rule="evenodd" d="M217.36,197.31c5.554,5.555,5.554,14.592,0,20.146
	c-5.556,5.556-14.593,5.555-20.146,0c-0.321-0.319-46.587-46.682-46.587-46.682s-46.266,46.362-46.586,46.682
	c-5.554,5.555-14.591,5.556-20.147,0c-5.554-5.554-5.553-14.591,0-20.146c0.035-0.032,46.587-46.682,46.587-46.682
	s-46.375-46.375-46.587-46.586c-5.554-5.555-5.554-14.591,0.001-20.146c5.554-5.554,14.591-5.554,20.146,0
	c0.211,0.211,46.586,46.587,46.586,46.587s46.374-46.376,46.585-46.587c5.556-5.554,14.592-5.554,20.147,0
	c5.554,5.555,5.554,14.591,0,20.146c-0.211,0.211-46.587,46.586-46.587,46.586S217.327,197.277,217.36,197.31z M150,300
	c82.843,0,150-67.157,150-150S232.843,0,150,0S0,67.157,0,150S67.157,300,150,300z"/>
</svg>
