<?xml version="1.0" encoding="utf-8"?>
<!-- Generator: Adobe Illustrator 16.0.0, SVG Export Plug-In . SVG Version: 6.00 Build 0)  -->
<!DOCTYPE svg PUBLIC "-//W3C//DTD SVG 1.1//EN" "http://www.w3.org/Graphics/SVG/1.1/DTD/svg11.dtd">
<svg version="1.1" id="Layer_1" xmlns="http://www.w3.org/2000/svg" xmlns:xlink="http://www.w3.org/1999/xlink" x="0px" y="0px"
	 width="300px" height="300px" viewBox="0 0 300 300" enable-background="new 0 0 300 300" xml:space="preserve">
<title>dismiss</title>
<desc>Created with Sketch.</desc>
<path id="dismiss" d="M253.789,222.498c8.668,8.668,8.668,22.771,0,31.439c-8.67,8.67-22.774,8.668-31.439,0
	c-0.502-0.5-72.705-72.854-72.705-72.854s-72.203,72.354-72.702,72.854c-8.668,8.668-22.771,8.67-31.442,0
	c-8.667-8.668-8.666-22.771,0-31.439c0.054-0.052,72.705-72.853,72.705-72.853S45.832,77.272,45.5,76.942
	c-8.667-8.67-8.667-22.771,0.002-31.441c8.668-8.668,22.771-8.668,31.439,0c0.329,0.329,72.702,72.705,72.702,72.705
	s72.373-72.375,72.703-72.705c8.67-8.668,22.771-8.668,31.441,0c8.668,8.67,8.668,22.771,0,31.441
	c-0.33,0.33-72.705,72.703-72.705,72.703S253.736,222.446,253.789,222.498"/>
</svg>
