<?xml version="1.0" encoding="utf-8"?>
<!-- Generator: Adobe Illustrator 16.0.0, SVG Export Plug-In . SVG Version: 6.00 Build 0)  -->
<!DOCTYPE svg PUBLIC "-//W3C//DTD SVG 1.1//EN" "http://www.w3.org/Graphics/SVG/1.1/DTD/svg11.dtd">
<svg version="1.1" id="Layer_1" xmlns="http://www.w3.org/2000/svg" xmlns:xlink="http://www.w3.org/1999/xlink" x="0px" y="0px"
	 width="300px" height="300px" viewBox="0 0 300 300" enable-background="new 0 0 300 300" xml:space="preserve">
<g>
	<defs>
		<rect id="SVGID_1_" width="300" height="300"/>
	</defs>
	<clipPath id="SVGID_2_">
		<use xlink:href="#SVGID_1_"  overflow="visible"/>
	</clipPath>
</g>
<path fill-rule="evenodd" clip-rule="evenodd" d="M241.357,112.176c0-50.354-40.822-91.176-91.179-91.176
	C99.822,21,59,61.822,59,112.176c0,13.831,3.123,26.915,8.636,38.655l59.939,113.047h0.006c3.348,9.065,12.053,15.559,22.266,15.559
	c10.387,0,19.212-6.708,22.434-16.011l57.258-106.346l-0.011-0.008C237.045,143.816,241.357,128.505,241.357,112.176
	 M150.179,153.489c-22.78,0-41.312-18.53-41.312-41.313c0-22.775,18.532-41.31,41.312-41.31s41.312,18.535,41.312,41.31
	C191.491,134.959,172.959,153.489,150.179,153.489"/>
</svg>
