<?xml version="1.0" encoding="utf-8"?>
<!-- Generator: Adobe Illustrator 16.0.0, SVG Export Plug-In . SVG Version: 6.00 Build 0)  -->
<!DOCTYPE svg PUBLIC "-//W3C//DTD SVG 1.1//EN" "http://www.w3.org/Graphics/SVG/1.1/DTD/svg11.dtd">
<svg version="1.1" id="Layer_1" xmlns="http://www.w3.org/2000/svg" xmlns:xlink="http://www.w3.org/1999/xlink" x="0px" y="0px"
	 width="5573.111px" height="1990.154px" viewBox="0 0 5573.111 1990.154" enable-background="new 0 0 5573.111 1990.154"
	 xml:space="preserve">
<path fill-rule="evenodd" clip-rule="evenodd" fill="#FFFFFF" d="M3283.748,1072.614c-7.664,11.584-12.557,19.529-17.893,27.18
	c-49.843,71.39-105.776,136.571-182.021,181.676c-102.199,60.419-212.97,85.34-328.428,60.315
	c-59.242-12.852-114.359-46.009-170.154-72.463c-12.86-6.069-19.889-6.222-31.32,0.525c-47.858,28.226-94.405,59.867-145.077,81.811
	c-89.938,38.936-184.638,60.752-282.521,34.858c-61.352-16.233-114.425-50.798-162.374-92.377
	c-34.004-29.48-36.188-29.454-70.677-1.086c-62.013,51.031-133.607,83.934-208.522,111.116
	c-92.929,33.748-188.767,54.427-286.788,64.135c-119.596,11.841-230.494-8.47-311.427-106.783
	c-64.874-78.774-82.223-170.154-42.536-265.149c43.469-104.014,93.732-205.23,140.931-307.659
	c24.612-53.367,49.382-106.683,73.253-160.368c4.367-9.863,6.131-21.369,6.629-32.254c0.934-20.015,5.007-41.936-18.136-53.979
	c-23.644-12.262-51.543-10.052-68.875,11.879c-21.727,27.438-40.951,57.492-57.123,88.557
	c-53.572,102.827-105.403,206.598-157.659,310.099c-39.201,77.611-77.65,155.566-117.208,232.974
	c-37.478,73.422-107.924,101.396-184.269,72.845c-25.715-9.656-41.845-28.624-46.178-57.479
	c-6.13-40.938,7.294-77.598,21.817-114.246c31.716-80.164,63.843-160.177,95.546-240.367
	c16.977-42.995,33.965-86.026,49.904-129.417c11.166-30.339,14.522-62.515,1.497-92.316c-10.081-22.977-29.918-39.583-57.749-37.117
	c-30.391,2.696-54.301,18.573-65.758,46.79c-40.312,99.528-78.979,199.708-118.641,299.493
	c-47.438,119.434-94.088,239.194-143.505,357.821c-18.292,43.838-45.883,83.755-92.304,102.517
	c-23.501,9.529-50.107,15.42-75.411,15.776c-78.952,1.034-147.138-25.342-193.707-92.351c-37.03-53.29-46.087-112.597-28.19-175.339
	c16.551-58.082,33.105-116.161,50.467-174.013c16.451-54.823,33.939-109.351,51.016-164.008
	c15.916-50.889,30.796-102.163,48.054-152.591c33.964-99.273,61.352-201.523,115.176-292.585
	c36.825-62.308,96.479-95.994,164.892-116.891c71.529-21.816,132.46,5.648,193.529,36.035
	c23.158,11.493,46.009,23.784,69.779,33.797c33.161,13.923,63.396,5.109,90.181-16.707c21.921-17.845,44.042-35.676,64.248-55.409
	c50.48-49.281,159.529-58.413,212.819-1.062c12.274,13.207,26.758,24.348,40.312,36.316c27.896,24.64,39.431,27.154,71.707,8.94
	c76.756-43.339,156.27-37.338,234.432-9.556c45.345,16.134,72.488,54.657,89.82,100.283
	c25.495,67.175,14.806,132.039-10.741,195.179c-46.994,116.158-98.178,230.596-144.034,347.19
	c-27.18,69.167-50.134,140.288-69.666,211.974c-7.955,29.214-8.007,63.853-0.586,93.206c11.228,44.428,51.922,58.986,93.08,64.2
	c62.677,7.945,124.181-3.704,184.229-20.311c51.284-14.127,101.777-31.563,151.862-49.663c24.166-8.736,46.687-22.147,69.754-33.861
	c19.733-9.977,21.257-24.587,10.858-42.957c-21.243-37.489-43.585-74.507-62.298-113.286
	c-39.57-81.967-72.129-166.551-63.444-260.026c7.588-81.814,37.133-152.871,112.622-195.931
	c111.446-63.522,201.883-45.983,283.798,48.922c70.842,82.096,94.204,180.921,63.791,286.801
	c-17.015,59.203-41.359,116.427-64.582,173.68c-6.426,15.852-2.696,26.006,7.333,35.342
	c46.916,43.824,100.41,77.867,159.794,101.955c22.391,9.122,46.062,15.916,69.793,20.683c51.041,10.229,98.392-1.918,140.914-30.76
	c20.248-13.72,20.692-26.541,6.643-45.688c-97.806-133.394-136.521-281.87-107.131-445.024
	c11.011-61.083,39.266-118.779,104.833-136.368c40.529-10.884,86.334-10.424,128.475-5.058
	c68.489,8.71,130.514,36.045,172.59,95.009c50.48,70.751,63.37,148.182,41.645,232.766c-15.599,60.752-47.467,112.432-82.557,162.63
	c-13.896,19.902-14.432,38.245,4.511,51.553c29.173,20.502,58.821,42.982,91.788,54.852c71.633,25.776,145.962,23.528,218.13,0.331
	c78.966-25.434,134.452-77.815,166.094-155.54c37.794-92.951,38.255-190.312,36.34-288.026
	c-1.521-76.348-4.19-152.691-6.452-229.065c-0.804-27.271-5.197-28.854-31.194-23.566c-68.489,13.836-137.323,26.084-206.056,38.653
	c-21.678,3.934-43.547,6.604-65.211,10.512c-47.221,8.496-86.18-10.907-88.849-66.141c-2.722-55.665-10.78-111.064-16.503-166.604
	c-0.334-3.126-0.59-6.27-0.755-9.426c-3.195-65.359,12.621-100.909,91.088-98.061c81.033,2.978,162.066,5.647,242.999,9.899
	c39.812,2.07,53.814-7.958,56.433-47.464c2.019-30.67,2.874-61.364,4.788-92.021c2.875-45.982,13.36-56.905,60.072-55.078
	c27.925,1.099,55.986,5.966,83.297,12.109c38.46,8.648,58.617,35.728,61.285,73.982c2.16,31.346,1.254,62.936,0.756,94.383
	c-0.41,22.251,6.5,34.194,31.446,36.712c72.005,7.33,143.726,17.346,215.579,25.877c33.926,4.038,52.966,17.771,57.554,42.996
	c7.958,43.812-1.51,73.816-34.579,85.786c-46.253,16.732-94.074,29.48-141.896,41.269c-33.466,8.266-68.134,11.804-102.149,18.052
	c-22.825,4.177-35.229,16.169-35.024,41.845c0.855,126.786-2.019,253.688,1.662,380.352c1.914,66.471,11.892,133.033,40.209,195.123
	c22.875,50.289,61.938,70.101,116.265,60.992c79.717-13.373,152.792-41.372,216.444-91.813
	c35.319-27.986,58.552-62.233,60.314-109.531c3.182-86.552,7.459-173.077,12.54-259.502c1.471-24.934,4.297-50.788,12.61-74.047
	c4.635-12.903,21.562-29.966,33.35-30.312c65.117-1.967,130.676-2.618,195.486,3.003c40.77,3.525,68.778,41.667,66.621,84.828
	c-2.923,60.428-10.738,120.642-16.488,180.947c-7.102,74.403-13.652,148.858-21.56,223.161
	c-8.009,75.211,52.149,112.507,111.673,113.235c49.934,0.6,79.413-18.035,100.631-70.878
	c21.969-54.696,35.027-113.99,44.502-172.468c13.402-83.025,19.746-167.188,29.635-250.791c4.025-34.144,25.34-60.393,51.846-66.089
	c30.646-6.578,70.852,5.852,80.884,33.864c8.417,23.411,6.5,52.013,3.571,77.686c-10.829,95.213-26.447,189.952-35.365,285.355
	c-5.495,58.604,27.361,100.323,84.299,117.643c28.373,8.609,57.801,15.417,87.184,18.815c51.605,5.901,88.148-31.768,98.927-90.423
	c9.124-49.317,10.336-100.093,14.769-150.252c5.186-59.563,5.938-119.891,16.117-178.595
	c14.971-86.911,71.111-165.747,175.125-191.041c62.434-15.2,125.379-17.012,187.715-9.809
	c95.045,10.933,194.464,75.541,224.852,184.716c23.077,83,13.906,163.178-13.246,243.024
	c-31.451,92.53-88.941,164.636-169.222,219.549c-7.413,5.059-11.742,14.663-17.438,22.174c10.077,4.458,20.258,12.925,30.29,12.747
	c95.952-1.468,186.445-23.414,269.3-73.675c18.695-11.318,39.059-19.889,58.805-29.279c18.141-8.596,28.832,1.585,23.784,17.232
	c-8.419,26.224-18.548,53.893-35.319,75.08c-71.008,89.76-167.865,132.794-279.89,140.331c-47.517,3.191-95.745-3.156-143.622-5.801
	c-36.137-2.019-72.207-5.161-108.343-7.611c-18.34-1.202-28.929,6.5-33.518,25.456c-28.767,118.728-43.99,239.46-58.908,360.515
	c-9.416,76.218-23.635,152.18-41.871,226.765c-9.876,40.465-41.476,68.363-85.226,75.414c-26.149,4.213-45.5-7.103-54.275-31.476
	c-7.394-20.55-14.303-42.124-16.065-63.659c-8.626-106.288-5.1-212.319,9.015-318.096c7.155-53.814,11.943-107.934,18.088-161.865
	c4.342-37.513,9.992-74.902,13.519-112.493c2.767-30.361-4.142-37.528-33.213-43.312c-60.127-11.996-120.286-23.787-180.154-37.043
	c-40.672-9.044-72.376,5.362-99.942,33.388c-36.629,37.26-77.1,69.641-125.127,90.576c-58.002,25.303-119.482,19.989-179.143,10.537
	c-86.069-13.706-154.814-58.96-203.686-131.578c-15.178-22.53-26.162-47.95-38.054-72.515
	c-6.655-13.755-12.644-19.107-28.774-10.881c-57.203,29.124-114.193,59.025-173.244,83.972
	c-65.771,27.796-135.567,37.565-205.46,18.075c-68.134-19.034-120.39-62.897-163.78-117.72
	C3313.231,1110.512,3301.787,1095.72,3283.748,1072.614z M5246.166,799.954c-0.752-9.426-0.752-18.917-2.314-28.19
	c-8.722-53.701-62.641-77.738-106.08-45.357c-19.643,14.636-37.49,33.86-50.893,54.427
	c-44.754,68.604-64.961,147.199-85.168,225.358c-5.086,19.633-8.625,40.391-8.217,60.545c0.759,37.542,22.832,48.578,54.275,28.294
	c65.26-42.101,113.598-100.5,154.406-165.416C5226.971,890.182,5247.28,848.581,5246.166,799.954z M2685.396,837.826
	c0.574-37.312-8.136-71.837-35.615-98.673c-15.234-14.87-34.281-21.344-56.124-14.536c-26.492,8.211-40.811,27.87-42.804,60.493
	c-3.855,63.201,23.288,117.502,51.223,170.957c14.384,27.529,28.051,26.658,46.634,1.216
	C2674.704,921.708,2684.846,881.268,2685.396,837.826z M2041.107,825.755c-6.908-22.854-11.479-46.789-21.344-68.312
	c-12.595-27.387-45.062-39.713-73.777-32.202c-30.388,7.972-42.406,22.456-39.253,59.894c2.773,32.585,10.259,65.081,18.93,96.732
	c6.36,23.262,16.159,46.061,27.743,67.252c15.586,28.547,31.871,28.829,47.198,1.189
	C2021.731,912.255,2038.056,872.29,2041.107,825.755z"/>
</svg>
