<?xml version="1.0" encoding="utf-8"?>
<!-- Generator: Adobe Illustrator 16.0.0, SVG Export Plug-In . SVG Version: 6.00 Build 0)  -->
<!DOCTYPE svg PUBLIC "-//W3C//DTD SVG 1.1//EN" "http://www.w3.org/Graphics/SVG/1.1/DTD/svg11.dtd">
<svg version="1.1" id="Layer_1" xmlns="http://www.w3.org/2000/svg" xmlns:xlink="http://www.w3.org/1999/xlink" x="0px" y="0px"
	 width="32px" height="32px" viewBox="0 0 32 32" enable-background="new 0 0 32 32" xml:space="preserve">
<path fill-rule="evenodd" clip-rule="evenodd" d="M7.697,25.939C7.697,27.075,6.772,28,5.636,28s-2.061-0.925-2.061-2.061
	c0-1.137,0.925-2.061,2.061-2.061S7.697,24.803,7.697,25.939 M28.455,6.976v11.011c0,1.257-1.108,2.212-2.365,2.212H14.233
	c-1.405,0-2.797,0.522-3.916,1.409c-0.742,0.589-1.628,0.931-2.576,0.931c-2.316,0-4.196-2.011-4.196-4.484V6.912
	C3.545,5.324,4.829,4,6.417,4h19.008C27.048,4,28.455,5.353,28.455,6.976 M23.08,15.035c0-0.702-0.568-1.316-1.271-1.316H10.116
	c-0.702,0-1.271,0.615-1.271,1.316s0.569,1.316,1.271,1.316H21.81C22.512,16.351,23.08,15.737,23.08,15.035 M23.08,9.366
	c0-0.702-0.568-1.316-1.271-1.316H10.116c-0.702,0-1.271,0.615-1.271,1.316c0,0.701,0.569,1.316,1.271,1.316H21.81
	C22.512,10.682,23.08,10.067,23.08,9.366"/>
</svg>
