<?xml version="1.0" encoding="utf-8"?>
<!-- Generator: Adobe Illustrator 16.0.0, SVG Export Plug-In . SVG Version: 6.00 Build 0)  -->
<!DOCTYPE svg PUBLIC "-//W3C//DTD SVG 1.1//EN" "http://www.w3.org/Graphics/SVG/1.1/DTD/svg11.dtd">
<svg version="1.1" id="Layer_1" xmlns="http://www.w3.org/2000/svg" xmlns:xlink="http://www.w3.org/1999/xlink" x="0px" y="0px"
	 width="32px" height="32px" viewBox="0 0 32 32" enable-background="new 0 0 32 32" xml:space="preserve">
<path id="SVGID_1_" d="M16.039,26.083c1.271,0,2.304,1.032,2.304,2.303c0,1.271-1.032,2.304-2.304,2.304
	c-1.271,0-2.305-1.032-2.305-2.304C13.734,27.115,14.768,26.083,16.039,26.083 M6.214,19.646C4.948,19.771,4,20.852,4,22.154v0.1
	c0,1.352,1.076,2.549,2.428,2.549h9.511h9.511c1.352,0,2.551-1.197,2.551-2.549v-0.1c0-1.303-0.946-2.385-2.214-2.51
	c-0.914-0.09-1.635-0.813-1.635-1.732v-6.339c0-3.485-2.366-6.446-5.521-7.387c-0.184-0.055-0.368-0.23-0.368-0.422v-0.19
	c0-1.254-0.969-2.27-2.225-2.263c-0.032,0-0.033,0.004-0.064,0.006c-0.031-0.001-0.025-0.005-0.057-0.006
	c-1.256-0.007-2.182,1.009-2.182,2.263v0.19c0,0.192-0.184,0.367-0.368,0.422c-3.153,0.94-5.52,3.902-5.52,7.387v6.339
	C7.849,18.831,7.128,19.555,6.214,19.646"/>
</svg>
