<?xml version="1.0" encoding="utf-8"?>
<!-- Generator: Adobe Illustrator 16.0.0, SVG Export Plug-In . SVG Version: 6.00 Build 0)  -->
<!DOCTYPE svg PUBLIC "-//W3C//DTD SVG 1.1//EN" "http://www.w3.org/Graphics/SVG/1.1/DTD/svg11.dtd">
<svg version="1.1" id="Layer_1" xmlns="http://www.w3.org/2000/svg" xmlns:xlink="http://www.w3.org/1999/xlink" x="0px" y="0px"
	 width="300px" height="300px" viewBox="0 0 300 300" enable-background="new 0 0 300 300" xml:space="preserve">
<path fill-rule="evenodd" clip-rule="evenodd" d="M216.631,172.231c-12.26,0-22.231-9.975-22.231-22.231s9.972-22.231,22.231-22.231
	c12.257,0,22.231,9.975,22.231,22.231S228.888,172.231,216.631,172.231 M149.999,172.231c12.26,0,22.233-9.975,22.233-22.231
	s-9.974-22.231-22.233-22.231s-22.231,9.975-22.231,22.231S137.739,172.231,149.999,172.231 M83.369,172.231
	c12.259,0,22.231-9.975,22.231-22.231s-9.972-22.231-22.231-22.231c-12.257,0-22.231,9.975-22.231,22.231
	S71.112,172.231,83.369,172.231"/>
</svg>
