<?xml version="1.0" encoding="UTF-8" standalone="no"?>
<svg width="24px" height="24px" viewBox="0 0 24 24" version="1.1" xmlns="http://www.w3.org/2000/svg" xmlns:xlink="http://www.w3.org/1999/xlink">
    <!-- Generator: Sketch 3.7.2 (28276) - http://www.bohemiancoding.com/sketch -->
    <title>overflow</title>
    <desc>Created with Sketch.</desc>
    <defs></defs>
    <g id="Page-1" stroke="none" stroke-width="1" fill="none" fill-rule="evenodd" fill-opacity="0.12">
        <g id="overflow" fill="#000000">
            <path d="M12.3461929,10.6666667 C11.3322318,10.6666667 10.5093795,11.4875 10.5093795,12.5 C10.5093795,13.5125 11.3322318,14.3333333 12.3461929,14.3333333 C13.3601539,14.3333333 14.1813372,13.5125 14.1813372,12.5 C14.1813372,11.4875 13.3601539,10.6666667 12.3461929,10.6666667 L12.3461929,10.6666667 Z M6.50444204,10.6666667 C5.490481,10.6666667 4.66762867,11.4875 4.66762867,12.5 C4.66762867,13.5125 5.490481,14.3333333 6.50444204,14.3333333 C7.51840308,14.3333333 8.33958634,13.5116667 8.33958634,12.5 C8.33958634,11.4883333 7.51840308,10.6666667 6.50444204,10.6666667 L6.50444204,10.6666667 Z M18.1879437,10.6666667 C17.1739827,10.6666667 16.3511304,11.4875 16.3511304,12.5 C16.3511304,13.5125 17.1739827,14.3333333 18.1879437,14.3333333 C19.2019048,14.3333333 20.023088,13.5125 20.023088,12.5 C20.023088,11.4875 19.2019048,10.6666667 18.1879437,10.6666667 L18.1879437,10.6666667 Z" id="Shape"></path>
        </g>
    </g>
</svg>