<?xml version="1.0" encoding="utf-8"?>
<!-- Generator: Adobe Illustrator 16.0.0, SVG Export Plug-In . SVG Version: 6.00 Build 0)  -->
<!DOCTYPE svg PUBLIC "-//W3C//DTD SVG 1.1//EN" "http://www.w3.org/Graphics/SVG/1.1/DTD/svg11.dtd">
<svg version="1.1" id="Layer_1" xmlns="http://www.w3.org/2000/svg" xmlns:xlink="http://www.w3.org/1999/xlink" x="0px" y="0px"
	 width="300px" height="300px" viewBox="0 0 300 300" enable-background="new 0 0 300 300" xml:space="preserve">
<path d="M249.262,162.869l-86.523,87.695c-5.126,5.191-13.479,5.249-18.673,0.129c-5.189-5.127-5.242-13.484-0.125-18.666
	l86.528-87.697c20.487-20.763,20.261-54.19-0.5-74.672c-20.756-20.479-54.185-20.249-74.667,0.506L53.322,173.512
	c-11.943,12.115-11.812,31.618,0.293,43.564c12.112,11.945,31.607,11.815,43.562-0.297l95.793-97.085
	c3.413-3.467,3.374-9.033-0.083-12.448c-3.461-3.414-9.025-3.378-12.442,0.081l-80.35,81.431c-5.116,5.19-13.476,5.25-18.671,0.127
	c-5.181-5.117-5.239-13.479-0.122-18.666l80.346-81.438c13.652-13.838,35.941-13.986,49.781-0.327
	c13.838,13.652,13.984,35.939,0.33,49.775l-95.794,97.093c-22.184,22.486-58.406,22.73-80.887,0.546
	c-22.488-22.187-22.732-58.409-0.547-80.893l101.98-103.358c30.724-31.132,80.869-31.474,111.996-0.751
	C279.643,81.588,279.98,131.735,249.262,162.869"/>
</svg>
