<?xml version="1.0" encoding="utf-8"?>
<!-- Generator: Adobe Illustrator 16.0.0, SVG Export Plug-In . SVG Version: 6.00 Build 0)  -->
<!DOCTYPE svg PUBLIC "-//W3C//DTD SVG 1.1//EN" "http://www.w3.org/Graphics/SVG/1.1/DTD/svg11.dtd">
<svg version="1.1" id="Layer_1" xmlns="http://www.w3.org/2000/svg" xmlns:xlink="http://www.w3.org/1999/xlink" x="0px" y="0px"
	 width="24px" height="24px" viewBox="0 0 24 24" enable-background="new 0 0 24 24" xml:space="preserve">
<path fill-rule="evenodd" clip-rule="evenodd" d="M10.333,2H7.75C7.333,2,7,2.5,7,3.167c0,0.667,0.333,1.167,0.75,1.167h2.583h7.5
	c1.001,0,1.835,0.833,1.835,1.833V13.5v2.667c0,0.416,0.499,0.833,1.165,0.833C21.5,17,22,16.666,22,16.167V13.5V3.833
	C22,2.833,21.167,2,20.167,2H10.333z M3.417,18.916l3.833-5l1.833,2.334l2.833-4l4.667,6.666H3.417z M6.083,9.083
	c0.667,0,1.25,0.583,1.25,1.25s-0.583,1.25-1.25,1.25c-0.666,0-1.25-0.583-1.25-1.25S5.333,9.083,6.083,9.083z M16.666,6.083H3.083
	C2.667,6.083,2,6.333,2,7.167v13.416C2,21.583,2.833,22,3.25,22H16.5c0.5,0,1.416-0.417,1.416-1.417V7.25
	C17.916,6.417,17.083,6.083,16.666,6.083z"/>
</svg>
