<?xml version="1.0" encoding="utf-8"?>
<!-- Generator: Adobe Illustrator 16.0.0, SVG Export Plug-In . SVG Version: 6.00 Build 0)  -->
<!DOCTYPE svg PUBLIC "-//W3C//DTD SVG 1.1//EN" "http://www.w3.org/Graphics/SVG/1.1/DTD/svg11.dtd">
<svg version="1.1" id="Layer_1" xmlns="http://www.w3.org/2000/svg" xmlns:xlink="http://www.w3.org/1999/xlink" x="0px" y="0px"
	 width="24px" height="24px" viewBox="0 0 24 24" enable-background="new 0 0 24 24" xml:space="preserve">
<path fill-rule="evenodd" clip-rule="evenodd" d="M12,0C5.373,0,0,5.373,0,12c0,6.627,5.373,12,12,12c6.627,0,12-5.373,12-12
	C24,5.373,18.627,0,12,0z M12,22C6.486,22,2,17.514,2,12C2,6.486,6.486,2,12,2c5.514,0,10,4.486,10,10C22,17.514,17.514,22,12,22z
	 M19.68,12c0,0.685-0.556,1-1.24,1H13v5.52c0,0.685-0.315,1.24-1,1.24s-1-0.556-1-1.24V13H5.561c-0.685,0-1.241-0.315-1.241-1
	s0.556-1,1.241-1H11V5.641C11,4.956,11.315,4.4,12,4.4s1,0.556,1,1.241V11h5.439C19.125,11,19.68,11.315,19.68,12z"/>
</svg>
