<?xml version="1.0" encoding="utf-8"?>
<!-- Generator: Adobe Illustrator 16.0.0, SVG Export Plug-In . SVG Version: 6.00 Build 0)  -->
<!DOCTYPE svg PUBLIC "-//W3C//DTD SVG 1.1//EN" "http://www.w3.org/Graphics/SVG/1.1/DTD/svg11.dtd">
<svg version="1.1" id="Layer_1" xmlns="http://www.w3.org/2000/svg" xmlns:xlink="http://www.w3.org/1999/xlink" x="0px" y="0px"
	 width="300px" height="300px" viewBox="0 0 300 300" enable-background="new 0 0 300 300" xml:space="preserve">
<g>
	<path d="M39.231,240.111c-12.259,0-22.231,9.974-22.231,22.231c0,12.257,9.972,22.231,22.231,22.231s22.231-9.975,22.231-22.231
		C61.463,250.085,51.491,240.111,39.231,240.111z"/>
	<path d="M260.205,16H38.939C26.442,16,17,24.881,17,37.379v152.925c0,19.367,14.495,32.649,32.75,32.649
		c10.148,0,19.055-4.366,25.125-11.554c11.646-13.787,28.943-21.096,46.989-21.096h138.34c12.498,0,23.632-10.916,23.632-23.415
		V37.379C283.837,24.881,272.703,16,260.205,16z M159.805,156.991c-2.225,1.976-4.793,2.964-7.705,2.964
		c-3.014,0-5.645-0.975-7.89-2.926c-2.248-1.951-3.37-4.678-3.37-8.188c0-3.109,1.083-5.728,3.259-7.851
		c2.173-2.125,4.84-3.185,8.001-3.185c3.111,0,5.729,1.06,7.854,3.185c2.123,2.123,3.186,4.742,3.186,7.851
		C163.139,152.3,162.028,155.017,159.805,156.991z M187.475,88.389c-1.705,3.161-3.73,5.891-6.074,8.188
		c-2.348,2.296-6.557,6.162-12.631,11.595c-1.68,1.532-3.027,2.876-4.039,4.035c-1.014,1.161-1.768,2.225-2.26,3.188
		c-0.494,0.965-0.878,1.927-1.148,2.89c-0.271,0.961-0.681,2.655-1.223,5.074c-0.938,5.135-3.879,7.706-8.815,7.706
		c-2.569,0-4.729-0.84-6.482-2.52c-1.754-1.677-2.63-4.174-2.63-7.482c0-4.15,0.64-7.741,1.926-10.779
		c1.283-3.038,2.985-5.705,5.112-8.001c2.121-2.297,4.986-5.023,8.592-8.188c3.161-2.764,5.445-4.851,6.854-6.26
		c1.407-1.409,2.594-2.974,3.557-4.705c0.962-1.727,1.445-3.605,1.445-5.629c0-3.95-1.471-7.284-4.41-10.003
		c-2.938-2.713-6.73-4.072-11.37-4.072c-5.434,0-9.434,1.373-12.002,4.112c-2.567,2.741-4.74,6.779-6.519,12.11
		c-1.68,5.583-4.866,8.374-9.558,8.374c-2.767,0-5.101-0.976-7.002-2.927c-1.9-1.952-2.851-4.062-2.851-6.334
		c0-4.692,1.504-9.447,4.517-14.262c3.013-4.817,7.41-8.803,13.188-11.963c5.779-3.161,12.521-4.743,20.226-4.743
		c7.161,0,13.483,1.321,18.964,3.963c5.482,2.642,9.719,6.236,12.707,10.779c2.988,4.546,4.481,9.484,4.481,14.817
		C190.03,81.551,189.178,85.229,187.475,88.389z"/>
</g>
</svg>
