<?xml version="1.0" encoding="utf-8"?>
<!-- Generator: Adobe Illustrator 16.0.0, SVG Export Plug-In . SVG Version: 6.00 Build 0)  -->
<!DOCTYPE svg PUBLIC "-//W3C//DTD SVG 1.1//EN" "http://www.w3.org/Graphics/SVG/1.1/DTD/svg11.dtd">
<svg version="1.1" id="Layer_1" xmlns="http://www.w3.org/2000/svg" xmlns:xlink="http://www.w3.org/1999/xlink" x="0px" y="0px"
	 width="24px" height="24px" viewBox="138 138 24 24" enable-background="new 138 138 24 24" xml:space="preserve">
<path d="M157.938,142.137c-2.848-2.849-7.467-2.849-10.315,0s-2.849,7.467,0,10.315s7.468,2.849,10.315,0
	C160.787,149.604,160.787,144.985,157.938,142.137 M149.182,150.894c-1.988-1.988-1.988-5.21,0-7.198
	c1.988-1.987,5.21-1.987,7.198,0c1.987,1.988,1.987,5.21,0,7.198C154.393,152.881,151.17,152.881,149.182,150.894 M146.803,153.272
	c0.693,0.693,0.693,1.821,0,2.516l-4.407,4.407c-0.693,0.693-1.822,0.693-2.516,0c-0.693-0.693-0.693-1.822,0-2.516l4.408-4.407
	C144.981,152.579,146.109,152.579,146.803,153.272"/>
</svg>
