<?xml version="1.0" encoding="utf-8"?>
<!-- Generator: Adobe Illustrator 16.0.0, SVG Export Plug-In . SVG Version: 6.00 Build 0)  -->
<!DOCTYPE svg PUBLIC "-//W3C//DTD SVG 1.1//EN" "http://www.w3.org/Graphics/SVG/1.1/DTD/svg11.dtd">
<svg version="1.1" id="Layer_1" xmlns="http://www.w3.org/2000/svg" xmlns:xlink="http://www.w3.org/1999/xlink" x="0px" y="0px"
	 width="300px" height="300px" viewBox="0 0 300 300" enable-background="new 0 0 300 300" xml:space="preserve">
<path fill-rule="evenodd" clip-rule="evenodd" d="M249.235,51.706c-35.605-35.607-93.337-35.607-128.944,0
	c-35.608,35.608-35.608,93.337,0,128.945c35.607,35.607,93.339,35.607,128.944,0C284.844,145.043,284.844,87.313,249.235,51.706
	 M139.776,161.165c-24.844-24.846-24.844-65.128,0-89.974c24.847-24.844,65.128-24.844,89.974,0
	c24.844,24.846,24.844,65.128,0,89.974C204.904,186.009,164.623,186.009,139.776,161.165 M110.035,190.906
	c8.668,8.668,8.668,22.771,0,31.439l-55.093,55.096c-8.668,8.666-22.771,8.668-31.442,0c-8.668-8.67-8.666-22.773,0-31.441
	l55.096-55.094C87.264,182.238,101.367,182.238,110.035,190.906"/>
</svg>
