<?xml version="1.0" encoding="utf-8"?>
<!-- Generator: Adobe Illustrator 16.0.0, SVG Export Plug-In . SVG Version: 6.00 Build 0)  -->
<!DOCTYPE svg PUBLIC "-//W3C//DTD SVG 1.1//EN" "http://www.w3.org/Graphics/SVG/1.1/DTD/svg11.dtd">
<svg version="1.1" id="Layer_1" xmlns="http://www.w3.org/2000/svg" xmlns:xlink="http://www.w3.org/1999/xlink" x="0px" y="0px"
	 width="160px" height="160px" viewBox="0 0 160 160" enable-background="new 0 0 160 160" xml:space="preserve">
<g id="Layer_1_1_">
</g>
<g id="Layer_2">
	<g>
		<circle cx="57.295" cy="32.079" r="11.857"/>
		<path d="M145.08,25.404H87.255c-3.685,0-6.673,2.988-6.673,6.675c0,3.688,2.986,6.675,6.673,6.675h57.825
			c3.684,0,6.672-2.988,6.672-6.675S148.766,25.404,145.08,25.404z"/>
		<path d="M25.152,25.404h-10.23c-3.685,0-6.673,2.988-6.673,6.675c0,3.688,2.987,6.675,6.673,6.675h10.23
			c3.686,0,6.673-2.987,6.673-6.675C31.825,28.392,28.837,25.404,25.152,25.404z"/>
	</g>
	<g>
		<circle cx="102.706" cy="79.892" r="11.857"/>
		<path d="M14.921,73.216h57.825c3.685,0,6.673,2.988,6.673,6.675c0,3.688-2.987,6.675-6.673,6.675H14.921
			c-3.684,0-6.672-2.988-6.672-6.675S11.236,73.216,14.921,73.216z"/>
		<path d="M134.85,73.216h10.229c3.685,0,6.673,2.988,6.673,6.675c0,3.688-2.986,6.675-6.673,6.675H134.85
			c-3.687,0-6.674-2.987-6.674-6.675C128.176,76.205,131.164,73.216,134.85,73.216z"/>
	</g>
	<g>
		<circle cx="57.295" cy="127.902" r="11.857"/>
		<path d="M145.08,121.227H87.255c-3.685,0-6.673,2.988-6.673,6.676s2.986,6.675,6.673,6.675h57.825
			c3.684,0,6.672-2.988,6.672-6.675C151.752,124.215,148.766,121.227,145.08,121.227z"/>
		<path d="M25.152,121.227h-10.23c-3.685,0-6.673,2.988-6.673,6.676s2.987,6.675,6.673,6.675h10.23c3.686,0,6.673-2.987,6.673-6.675
			S28.837,121.227,25.152,121.227z"/>
	</g>
</g>
</svg>
