<?xml version="1.0" encoding="utf-8"?>
<!-- Generator: Adobe Illustrator 16.0.0, SVG Export Plug-In . SVG Version: 6.00 Build 0)  -->
<!DOCTYPE svg PUBLIC "-//W3C//DTD SVG 1.1//EN" "http://www.w3.org/Graphics/SVG/1.1/DTD/svg11.dtd">
<svg version="1.1" id="Layer_1" xmlns="http://www.w3.org/2000/svg" xmlns:xlink="http://www.w3.org/1999/xlink" x="0px" y="0px"
	 width="300px" height="300px" viewBox="0 0 300 300" enable-background="new 0 0 300 300" xml:space="preserve">
<path d="M82.219,93.382C82.219,55.125,113.345,24,151.602,24c38.254,0,69.38,31.125,69.38,69.382c0,38.255-31.126,69.38-69.38,69.38
	C113.345,162.762,82.219,131.637,82.219,93.382z M268.443,251.231c-11.689-40.949-62.18-68.829-117.442-68.829
	c-55.265,0-105.755,27.88-117.444,68.829c-1.423,4.981-0.089,13.271,3.657,17.316c3.776,4.082,9.442,6.533,15.546,6.533h196.479
	c6.104,0,11.771-2.451,15.549-6.533C268.531,264.502,269.866,256.213,268.443,251.231z"/>
</svg>
