<?xml version="1.0" encoding="UTF-8" standalone="no"?>
<svg width="24px" height="27px" viewBox="0 0 24 27" version="1.1" xmlns="http://www.w3.org/2000/svg" xmlns:xlink="http://www.w3.org/1999/xlink" xmlns:sketch="http://www.bohemiancoding.com/sketch/ns">
    <!-- Generator: Sketch 3.2.2 (9983) - http://www.bohemiancoding.com/sketch -->
    <title>Imported Layers</title>
    <desc>Created with Sketch.</desc>
    <defs></defs>
    <g id="As-Is" stroke="none" stroke-width="1" fill="none" fill-rule="evenodd" sketch:type="MSPage">
        <g id="6_ghome-2" sketch:type="MSArtboardGroup" transform="translate(-148.000000, -10.000000)" fill-opacity="0.54" fill="#000000">
            <path d="M152.522391,21.9386436 L154.748438,21.9386436 L154.748438,24.1998391 L152.522391,24.1998391 L152.522391,21.9386436 Z M152.522391,25.6994921 L154.760154,25.6994921 L154.760154,27.9372555 L152.522391,27.9372555 L152.522391,25.6994921 Z M152.522391,29.4251925 L154.748438,29.4251925 L154.748438,31.698104 L152.522391,31.698104 L152.522391,29.4251925 Z M156.248091,21.9386436 L158.497571,21.9386436 L158.497571,24.1998391 L156.248091,24.1998391 L156.248091,21.9386436 Z M156.259807,25.6994921 L158.497571,25.6994921 L158.497571,27.9372555 L156.259807,27.9372555 L156.259807,25.6994921 Z M156.248091,29.4251925 L158.497571,29.4251925 L158.497571,31.698104 L156.248091,31.698104 L156.248091,29.4251925 Z M159.985508,21.9386436 L162.258419,21.9386436 L162.258419,24.1998391 L159.985508,24.1998391 L159.985508,21.9386436 Z M159.985508,25.6994921 L162.270135,25.6994921 L162.270135,27.9372555 L159.985508,27.9372555 L159.985508,25.6994921 Z M159.985508,29.4251925 L162.258419,29.4251925 L162.258419,31.698104 L159.985508,31.698104 L159.985508,29.4251925 Z M163.746356,21.9386436 L165.995836,21.9386436 L165.995836,24.1998391 L163.746356,24.1998391 L163.746356,21.9386436 Z M163.758072,25.6994921 L165.995836,25.6994921 L165.995836,27.9372555 L163.758072,27.9372555 L163.758072,25.6994921 Z M170.342486,12.9407258 L165.995836,12.9407258 L165.972404,11.0192954 C165.960688,10.292901 165.831811,10 164.554763,10 C163.277715,10 162.99653,10.292901 162.99653,11.0192954 L163.008246,12.9407258 L155.509981,12.9407258 L155.521697,11.0192954 C155.521697,10.292901 155.357672,10 154.104056,10 C152.827008,10 152.557539,10.292901 152.545823,11.0192954 L152.522391,12.9407258 L148.913851,12.9407258 C148.421777,12.9407258 148,13.1750465 148,13.6671202 L148,36.9351734 L171.256337,36.9351734 L171.256337,13.6671202 C171.256337,13.1750465 170.846276,12.9407258 170.342486,12.9407258 L170.342486,12.9407258 Z M149.511369,18.1895112 L169.756684,18.1895112 L169.756684,35.4472364 L149.511369,35.4472364 L149.511369,18.1895112 Z" id="Imported-Layers" sketch:type="MSShapeGroup"></path>
        </g>
    </g>
</svg>