<?xml version="1.0" encoding="UTF-8" standalone="no"?>
<svg width="26px" height="24px" viewBox="0 0 26 24" version="1.1" xmlns="http://www.w3.org/2000/svg" xmlns:xlink="http://www.w3.org/1999/xlink" xmlns:sketch="http://www.bohemiancoding.com/sketch/ns">
    <!-- Generator: Sketch 3.2.2 (9983) - http://www.bohemiancoding.com/sketch -->
    <title>Imported Layers</title>
    <desc>Created with Sketch.</desc>
    <defs></defs>
    <g id="As-Is" stroke="none" stroke-width="1" fill="none" fill-rule="evenodd" sketch:type="MSPage">
        <g id="6_ghome-2" sketch:type="MSArtboardGroup" transform="translate(-84.000000, -14.000000)" fill-opacity="0.54" fill="#000000">
            <path d="M109.500817,23.2933921 C109.426471,23.2722467 101.705065,21.2740088 99.124183,20.153304 L99.0604575,20.1215859 L99.0285948,20.0581498 L97.4885621,16.9180617 C97.4035948,16.7488987 97.254902,16.6220264 97.0637255,16.569163 C95.7148693,16.1991189 94.0473856,16.0088106 92.1037582,15.9982379 C89.7883987,15.9770925 87.6854575,16.2202643 86.6339869,16.3577093 L86.495915,16.3788546 L86.3578431,16.1039648 L86.3153595,16.0088106 L86.3684641,15.9136564 C86.495915,15.7127753 86.5702614,15.4907489 86.5702614,15.2687225 C86.5702614,14.9303965 86.4428105,14.6132159 86.1985294,14.3806167 C85.9542484,14.1374449 85.6356209,14 85.2957516,14 C85.0939542,14 84.9027778,14.0422907 84.7222222,14.1268722 C84.5098039,14.2325991 84.3292484,14.3806167 84.2017974,14.5814978 C84.0743464,14.7823789 84,15.014978 84,15.2475771 C84,15.5330396 84.0955882,15.8079295 84.2761438,16.0299559 C84.4566993,16.2519824 84.7009804,16.4105727 84.9771242,16.4740088 L85.0620915,16.4951542 L85.1045752,16.5797357 L94.3447712,35.6422907 L94.4509804,35.8748899 L94.1960784,35.9171806 C93.3995098,36.0334802 92.6454248,36.2449339 91.9763072,36.5726872 C91.4771242,36.8052863 91.1584967,37.0378855 91.0310458,37.1436123 L91.0310458,37.9471366 L100.005719,38 L100.01634,37.1964758 C99.8888889,37.1013216 99.5702614,36.8581498 99.0710784,36.614978 C98.6887255,36.4246696 98.2638889,36.2660793 97.8284314,36.139207 C97.2761438,35.9806167 96.6919935,35.8854626 96.0972222,35.8431718 L95.9803922,35.8325991 L95.9379085,35.7374449 L91.1372549,25.9471366 L91.0310458,25.7251101 L91.2647059,25.6722467 C91.753268,25.5770925 92.3374183,25.492511 93.0065359,25.4502203 C93.6650327,25.3973568 94.4191176,25.3762115 95.2369281,25.3867841 C95.5874183,25.3867841 95.9697712,25.3973568 96.3946078,25.4079295 L96.5539216,25.4185022 L96.5751634,25.5665198 C96.7663399,26.6977974 97.1593137,28.7277533 97.6797386,29.6475771 L97.6903595,29.6581498 L97.6903595,29.6687225 C97.754085,29.8273128 97.8496732,29.954185 97.9771242,30.0599119 C98.0833333,30.1444934 98.2745098,30.2502203 98.5718954,30.2502203 C98.8586601,30.260793 99.5171569,30.1022026 101.089052,29.3515419 C103.786765,28.061674 107.631536,25.7568282 109.681373,24.4881057 C109.915033,24.3506608 110.031863,24.0969163 109.989379,23.8325991 C109.946895,23.5788546 109.755719,23.3674009 109.500817,23.2933921 L109.500817,23.2933921 Z M95.2369281,24.0651982 C94.3235294,24.0651982 93.4526144,24.0969163 92.6560458,24.1709251 C91.9019608,24.2449339 91.2328431,24.3400881 90.6699346,24.477533 L90.5212418,24.5092511 L90.4575163,24.3718062 L87.2606209,17.8590308 L87.1437908,17.615859 L87.4093137,17.584141 C88.5351307,17.4572687 90.2663399,17.2986784 92.0931373,17.3092511 C93.7393791,17.3198238 95.1625817,17.4678414 96.3202614,17.7321586 L96.4158497,17.753304 L96.4477124,17.8378855 L98.6143791,22.2678414 L99.4109477,23.9911894 L99.5490196,24.2872247 L99.2197712,24.2660793 C98.253268,24.1814978 96.7663399,24.0757709 95.2369281,24.0651982 L95.2369281,24.0651982 Z M107.270425,24.4035242 C104.445261,26.0951542 101.800654,27.554185 100.196895,28.3259912 C99.9632353,28.4422907 99.750817,28.5374449 99.5702614,28.6114537 L99.0498366,28.8440529 L99.3259804,28.3471366 C99.7614379,27.5753304 100.504902,26.5180617 101.280229,25.5876652 C101.439542,25.3973568 101.471405,25.1330396 101.375817,24.9110132 L101.365196,24.9004405 L101.365196,24.8792952 C101.354575,24.8687225 101.354575,24.8581498 101.354575,24.8475771 C101.343954,24.8264317 101.333333,24.8052863 101.333333,24.784141 L100.13317,22.3312775 L99.9419935,21.9295154 L100.36683,22.0669604 C102.544118,22.7753304 105.294935,23.5365639 107.227941,24.0546256 L107.663399,24.1709251 L107.270425,24.4035242 L107.270425,24.4035242 Z" id="Imported-Layers" sketch:type="MSShapeGroup"></path>
        </g>
    </g>
</svg>