<?xml version="1.0" encoding="utf-8"?>
<!-- Generator: Adobe Illustrator 16.0.0, SVG Export Plug-In . SVG Version: 6.00 Build 0)  -->
<!DOCTYPE svg PUBLIC "-//W3C//DTD SVG 1.1//EN" "http://www.w3.org/Graphics/SVG/1.1/DTD/svg11.dtd">
<svg version="1.1" id="Layer_1" xmlns="http://www.w3.org/2000/svg" xmlns:xlink="http://www.w3.org/1999/xlink" x="0px" y="0px"
	 width="526px" height="500px" viewBox="36.5 49.5 526 500" enable-background="new 36.5 49.5 526 500" xml:space="preserve">
<path fill="#F70A3D" d="M489.659,370.918c0.041,45.485-32.715,84.669-77.257,92.373c-5.608,0.963-11.271,1.533-16.962,1.479
	c-1.918-0.021-2.672,0.746-3.282,2.503c-8.892,25.533-26.638,40.751-53.446,44.59c-17.734,2.537-33.827-2.218-47.934-13.306
	c-1.966-1.546-3.167-1.573-5.215-0.108c-16.5,11.801-35,17.028-55.203,15.808c-39.422-2.38-72.591-32.511-78.796-71.363
	c-0.427-2.686-0.881-5.392-0.922-8.098c-0.041-2.251-0.895-3.12-3.045-3.54c-11.936-2.327-22.766-7.243-32.321-14.723
	c-17.585-13.768-28.137-31.745-30.592-53.982c-2.801-25.452,5.06-47.458,22.963-65.795c1.444-1.472,1.533-2.496,0.549-4.226
	c-6.883-12.017-10.146-25.031-9.616-38.832c1.322-34.444,25.289-62.9,58.628-69.946c3.858-0.82,5.88-2.332,7.575-5.987
	c16.444-35.428,44.054-56.974,82.369-64.081c26.896-4.991,52.268,0.353,75.812,14.201c1.979,1.167,3.636,1.261,5.778,0.637
	c37.395-10.85,70.53-2.957,98.66,23.791c16.635,15.814,25.75,35.828,28.449,58.661c0.59,4.992,0.86,10.03,0.48,15.049
	c-0.143,1.898,0.441,2.692,2.238,3.357c16.858,6.239,28.482,17.876,33.568,35.088c6.334,21.41,1.012,40.182-14.986,55.793
	c-1.385,1.356-1.092,2.185-0.306,3.54C485.298,338.366,489.679,354.045,489.659,370.918z M322.803,363.614
	c0.013,19.354,12.438,36.458,30.056,42.271c8.83,2.916,17.938,4.299,27.182,4.706c6.6,0.285,13.189-0.176,19.287-3.215
	c4.794-2.394,7.053-6.348,6.836-11.617c-0.217-5.303-2.591-9.27-7.664-11.38c-1.763-0.732-3.553-1.329-5.425-1.655
	c-5.595-0.997-11.218-1.838-16.785-2.942c-9.188-1.831-13.041-6.694-13.163-15.985c-0.107-8.219,2.123-15.971,4.652-23.641
	c4.625-14.038,10.863-27.418,16.839-40.907c5.771-13.027,11.819-25.946,15.896-39.666c2.245-7.534,3.316-15.089,1.275-22.881
	c-3.106-11.827-10.193-19.754-22.414-22.034c-11.189-2.082-22.325-2.319-32.443,4.354c-3.365,2.211-6.6,1.682-9.521-0.895
	c-2.231-1.96-4.354-4.035-6.538-6.049c-10.321-9.528-23.966-9.996-35.047-1.295c-4.47,3.513-8.233,7.867-13.09,10.919
	c-4.34,2.726-8.714,3.499-13.521,0.935c-4.578-2.441-9.318-4.59-14.045-6.733c-4.788-2.163-9.427-4.835-14.818-5.29
	c-17.049-1.451-34.892,8.681-42.413,24.082c-3.337,6.815-6.062,13.896-8.646,21.023c-11.93,32.946-21.647,66.596-31.704,100.131
	c-4.503,15.008,0.812,29.777,13.521,37.883c9.915,6.319,20.772,7.881,32.011,4.503c9.106-2.74,14.092-10.07,17.577-18.305
	c11.583-27.315,22.014-55.094,33.055-82.627c3.038-7.575,5.98-15.184,9.203-22.678c3.255-7.568,12.606-10.146,18.154-5.127
	c3.385,3.064,4.279,7.142,3.947,11.502c-0.366,4.659-2.17,8.958-3.866,13.237c-7.182,18.163-14.499,36.269-21.715,54.417
	c-1.458,3.669-3.038,7.311-3.682,11.25c-1.105,6.762,1.573,12.757,7.106,15.144c5.644,2.436,11.502,2.842,17.354,0.719
	c6.809-2.468,10.878-7.799,14.011-13.957c10.771-21.151,21.458-42.352,32.22-63.502c4.972-9.772,10.031-19.497,15.11-29.209
	c1.886-3.601,4.097-7.012,7.623-9.25c3.181-2.014,6.612-2.164,9.874-0.332c3.182,1.783,3.396,5.039,3.262,8.253
	c-0.074,1.729-0.556,3.418-1.221,5.025c-1.396,3.343-2.699,6.734-4.246,10.01c-8.951,18.833-18.039,37.59-26.91,56.463
	C326.233,347.236,322.341,355.239,322.803,363.614z M448.365,502.401c0.021-12.492-10.45-22.937-23.044-22.971
	c-12.906-0.047-23.376,10.281-23.432,23.093c-0.054,12.524,10.594,23.151,23.188,23.166
	C437.847,525.703,448.345,515.205,448.365,502.401z M59.049,310.975c12.146,0.027,22.366-10.125,22.318-22.163
	c-0.055-12.057-10.058-22.054-22.102-22.087c-12.343-0.034-22.143,9.759-22.136,22.123C37.138,301.08,46.91,310.947,59.049,310.975z
	 M331.022,63.382c-12.207-0.068-22.156,9.691-22.225,21.789c-0.074,12.085,9.84,22.014,21.986,22.027
	c12.099,0.007,21.816-9.684,21.837-21.79C352.649,73.243,343.039,63.443,331.022,63.382z M510.75,200.339
	c-0.054-10.031-8.606-18.562-18.677-18.63c-10.281-0.074-18.989,8.613-18.921,18.874c0.074,10.234,8.375,18.439,18.67,18.453
	C502.429,219.056,510.811,210.769,510.75,200.339z M125.686,146.776c0,9.42,7.331,16.812,16.69,16.826
	c9.48,0.013,16.832-7.419,16.798-16.975c-0.034-9.27-7.378-16.52-16.704-16.492C132.881,130.155,125.692,137.282,125.686,146.776z
	 M301.006,535.306c0.081-7.846-6.375-14.309-14.311-14.336c-8.145-0.026-14.54,6.287-14.52,14.323
	c0.021,7.927,6.383,14.207,14.385,14.207C294.557,549.507,300.938,543.24,301.006,535.306z M524.87,312.372
	c-7.623-0.054-14.235,6.558-14.174,14.174c0.067,7.527,6.348,13.705,13.957,13.719c7.976,0.015,13.957-5.858,13.977-13.739
	C538.65,318.726,532.526,312.426,524.87,312.372z M190.051,49.5c-6.721-0.027-11.909,5.107-11.909,11.794
	c0,6.646,5.242,11.813,11.956,11.779c6.517-0.034,11.624-5.229,11.624-11.828C201.723,54.586,196.696,49.534,190.051,49.5z
	 M551.467,249.031c-5.479-0.062-10.444,4.842-10.512,10.396c-0.074,5.744,4.707,10.525,10.539,10.539
	c5.792,0.021,10.335-4.483,10.376-10.301C561.925,253.812,557.313,249.105,551.467,249.031z M136.618,455.927
	c0.026-5.562-4.769-10.349-10.417-10.403c-5.725-0.048-10.431,4.768-10.391,10.627c0.047,5.724,4.693,10.246,10.479,10.206
	C131.966,466.323,136.598,461.65,136.618,455.927z"/>
</svg>
