<?xml version="1.0" encoding="UTF-8" standalone="no"?>
<svg width="26px" height="24px" viewBox="0 0 26 24" version="1.1" xmlns="http://www.w3.org/2000/svg" xmlns:xlink="http://www.w3.org/1999/xlink" xmlns:sketch="http://www.bohemiancoding.com/sketch/ns">
    <!-- Generator: Sketch 3.2.2 (9983) - http://www.bohemiancoding.com/sketch -->
    <title>Imported Layers</title>
    <desc>Created with Sketch.</desc>
    <defs></defs>
    <g id="As-Is" stroke="none" stroke-width="1" fill="none" fill-rule="evenodd" sketch:type="MSPage">
        <g id="6_ghome-2" sketch:type="MSArtboardGroup" transform="translate(-211.000000, -13.000000)" fill-opacity="0.54" fill="#000000">
            <path d="M228.131001,23.0546875 C228.131001,23.3007812 227.926702,23.5 227.662314,23.5 L219.177879,23.5 C218.913491,23.5 218.697174,23.3007812 218.697174,23.0546875 L218.697174,22.4453125 C218.697174,22.1992188 218.913491,22 219.177879,22 L227.662314,22 C227.926702,22 228.131001,22.1992188 228.131001,22.4453125 L228.131001,23.0546875 L228.131001,23.0546875 Z M231.279616,26.0546875 C231.279616,26.3007812 231.063299,26.5 230.810929,26.5 L219.177879,26.5 C218.913491,26.5 218.697174,26.3007812 218.697174,26.0546875 L218.697174,25.4453125 C218.697174,25.1992188 218.913491,25 219.177879,25 L230.810929,25 C231.063299,25 231.279616,25.1992188 231.279616,25.4453125 L231.279616,26.0546875 L231.279616,26.0546875 Z M226.556694,29.0546875 C226.556694,29.3007812 226.352394,29.5 226.088007,29.5 L219.177879,29.5 C218.913491,29.5 218.697174,29.3007812 218.697174,29.0546875 L218.697174,28.4453125 C218.697174,28.1992188 218.913491,28 219.177879,28 L226.088007,28 C226.352394,28 226.556694,28.1992188 226.556694,28.4453125 L226.556694,29.0546875 L226.556694,29.0546875 Z M224.417558,13 C217.471378,13 211.847134,18.3671875 211.847134,25 C211.847134,26.640625 212.604244,28.9023438 212.604244,28.9023438 C212.736438,29.2890625 212.748455,29.9453125 212.628279,30.3320312 L211.029937,35.5703125 C210.909761,35.96875 211.16213,36.25 211.594765,36.1914062 L217.447342,35.5117188 C217.879977,35.4648438 218.552963,35.5585938 218.949544,35.7109375 C218.949544,35.7109375 222.158247,37 224.417558,37 C231.363739,37 237,31.6328125 237,25 C237,18.3671875 231.363739,13 224.417558,13 L224.417558,13 Z" id="Imported-Layers" sketch:type="MSShapeGroup"></path>
        </g>
    </g>
</svg>