<?xml version="1.0" encoding="UTF-8" standalone="no"?>
<svg width="22px" height="24px" viewBox="0 0 22 24" version="1.1" xmlns="http://www.w3.org/2000/svg" xmlns:xlink="http://www.w3.org/1999/xlink" xmlns:sketch="http://www.bohemiancoding.com/sketch/ns">
    <!-- Generator: Sketch 3.2.2 (9983) - http://www.bohemiancoding.com/sketch -->
    <title>Shape 4</title>
    <desc>Created with Sketch.</desc>
    <defs></defs>
    <g id="As-Is" stroke="none" stroke-width="1" fill="none" fill-rule="evenodd" sketch:type="MSPage">
        <path d="M17.4001467,9.98459708 C14.2640005,3.33226021 12.6326543,0.805266953 7.50890667,0.911010234 C5.68361457,0.947613677 6.12102443,-0.393156888 4.72901568,0.115224267 C3.33975794,0.623605421 4.53231879,1.36787543 3.11004898,2.51885036 C-0.881659901,5.74944314 -0.514400675,8.73736865 1.33702598,15.8587719 C2.11693602,18.8588985 -0.543286233,19.0053123 0.508973346,21.9118968 C1.27787936,24.0321851 6.94495056,24.9201576 12.9228854,22.7347964 C18.9021957,20.5480796 22.6696976,16.2085381 21.9007916,14.0882498 C20.848532,11.1803096 18.7220048,12.7854383 17.4001467,9.98459708 L17.4001467,9.98459708 Z M12.7711642,20.2732033 C7.39061225,22.1607144 2.96919013,21.0518016 2.78207665,20.5576407 C2.46051868,19.7056392 4.51876691,16.8665079 10.6699492,14.707667 C16.8211314,12.5488262 20.2543172,13.3497076 20.6132978,14.300017 C20.8253598,14.8623381 18.1531021,18.3843814 12.7711642,20.2732033 L12.7711642,20.2732033 Z M9.85594136,16.3373395 C7.18466178,17.2781418 5.32832653,18.3538799 4.125,19.3221691 C4.97154153,20.0518219 6.55666752,20.2292374 8.13521075,19.673252 C10.1455823,18.9673379 11.3818226,17.3418615 10.8933826,16.0449786 C10.8867999,16.0287363 10.8789006,16.0162423 10.8723178,16 C10.5418638,16.1024512 10.2035105,16.2136483 9.85594136,16.3373395 L9.85594136,16.3373395 Z" id="Shape-4" fill-opacity="0.54" fill="#000000" sketch:type="MSShapeGroup"></path>
    </g>
</svg>