<?xml version="1.0" encoding="utf-8"?>
<!-- Generator: Adobe Illustrator 16.0.0, SVG Export Plug-In . SVG Version: 6.00 Build 0)  -->
<!DOCTYPE svg PUBLIC "-//W3C//DTD SVG 1.1//EN" "http://www.w3.org/Graphics/SVG/1.1/DTD/svg11.dtd">
<svg version="1.1" id="Layer_1" xmlns="http://www.w3.org/2000/svg" xmlns:xlink="http://www.w3.org/1999/xlink" x="0px" y="0px"
	 width="600px" height="600px" viewBox="0 0 600 600" enable-background="new 0 0 600 600" xml:space="preserve">
<path fill-rule="evenodd" clip-rule="evenodd" fill="#F70A3D" d="M490.158,371.418c0.041,45.485-32.715,84.669-77.257,92.373
	c-5.608,0.963-11.271,1.533-16.961,1.479c-1.919-0.021-2.672,0.746-3.283,2.502c-8.891,25.534-26.638,40.751-53.446,44.59
	c-17.734,2.537-33.827-2.218-47.933-13.305c-1.966-1.546-3.167-1.574-5.215-0.109c-16.5,11.801-35,17.029-55.203,15.808
	c-39.422-2.38-72.591-32.511-78.796-71.363c-0.427-2.686-0.881-5.392-0.922-8.098c-0.041-2.251-0.895-3.12-3.045-3.54
	c-11.936-2.327-22.766-7.243-32.321-14.723c-17.585-13.767-28.137-31.745-30.592-53.982c-2.801-25.452,5.059-47.458,22.963-65.795
	c1.444-1.472,1.533-2.496,0.549-4.226c-6.883-12.017-10.146-25.031-9.617-38.832c1.323-34.444,25.289-62.9,58.628-69.946
	c3.859-0.82,5.88-2.332,7.575-5.987c16.445-35.428,44.054-56.974,82.37-64.081c26.896-4.991,52.267,0.353,75.812,14.201
	c1.98,1.167,3.635,1.261,5.778,0.637c37.395-10.85,70.53-2.957,98.66,23.791c16.635,15.814,25.75,35.828,28.449,58.661
	c0.59,4.992,0.861,10.03,0.481,15.049c-0.143,1.898,0.441,2.692,2.238,3.357c16.859,6.239,28.483,17.876,33.569,35.088
	c6.334,21.41,1.011,40.182-14.987,55.793c-1.384,1.356-1.092,2.184-0.305,3.54C485.797,338.866,490.178,354.545,490.158,371.418z
	 M323.302,364.114c0.013,19.355,12.438,36.458,30.056,42.271c8.83,2.916,17.938,4.299,27.181,4.706
	c6.599,0.285,13.19-0.176,19.287-3.215c4.794-2.394,7.053-6.348,6.836-11.617c-0.217-5.303-2.591-9.27-7.664-11.38
	c-1.763-0.733-3.553-1.329-5.425-1.655c-5.595-0.997-11.217-1.838-16.785-2.943c-9.189-1.831-13.041-6.694-13.163-15.985
	c-0.108-8.219,2.123-15.971,4.652-23.641c4.625-14.038,10.864-27.418,16.839-40.907c5.771-13.027,11.82-25.946,15.896-39.666
	c2.245-7.534,3.316-15.089,1.275-22.881c-3.106-11.827-10.193-19.754-22.414-22.034c-11.19-2.082-22.325-2.319-32.444,4.354
	c-3.364,2.211-6.599,1.682-9.521-0.895c-2.231-1.96-4.354-4.035-6.538-6.049c-10.321-9.528-23.966-9.996-35.047-1.295
	c-4.469,3.513-8.233,7.867-13.089,10.919c-4.34,2.726-8.714,3.499-13.522,0.935c-4.578-2.441-9.318-4.59-14.045-6.733
	c-4.788-2.163-9.427-4.835-14.818-5.29c-17.049-1.451-34.892,8.681-42.413,24.082c-3.337,6.815-6.063,13.896-8.647,21.023
	c-11.929,32.946-21.647,66.596-31.704,100.132c-4.503,15.007,0.813,29.777,13.522,37.882c9.915,6.32,20.772,7.881,32.01,4.503
	c9.107-2.74,14.092-10.07,17.578-18.304c11.583-27.316,22.013-55.094,33.054-82.628c3.038-7.575,5.981-15.184,9.203-22.678
	c3.255-7.568,12.607-10.146,18.155-5.127c3.384,3.064,4.279,7.142,3.947,11.502c-0.366,4.659-2.17,8.958-3.866,13.237
	c-7.182,18.162-14.499,36.269-21.715,54.417c-1.458,3.669-3.038,7.311-3.682,11.25c-1.105,6.762,1.573,12.757,7.107,15.144
	c5.643,2.435,11.502,2.842,17.354,0.719c6.809-2.468,10.878-7.799,14.011-13.957c10.77-21.152,21.458-42.352,32.22-63.503
	c4.971-9.772,10.03-19.497,15.11-29.209c1.885-3.601,4.096-7.012,7.623-9.25c3.181-2.014,6.612-2.164,9.874-0.332
	c3.181,1.783,3.397,5.039,3.262,8.253c-0.075,1.729-0.556,3.418-1.221,5.025c-1.397,3.343-2.699,6.734-4.246,10.01
	c-8.952,18.832-18.039,37.591-26.91,56.464C326.733,347.736,322.84,355.739,323.302,364.114z M448.864,502.901
	c0.021-12.492-10.45-22.936-23.044-22.97c-12.906-0.047-23.376,10.281-23.431,23.092c-0.054,12.525,10.593,23.152,23.187,23.166
	C438.346,526.203,448.844,515.705,448.864,502.901z M59.548,311.475c12.146,0.027,22.366-10.125,22.318-22.163
	c-0.054-12.057-10.057-22.054-22.101-22.087c-12.343-0.034-22.143,9.759-22.136,22.123C37.637,301.58,47.409,311.447,59.548,311.475
	z M331.521,63.882c-12.207-0.068-22.156,9.691-22.224,21.789c-0.075,12.085,9.84,22.014,21.986,22.027
	c12.099,0.007,21.816-9.684,21.837-21.79C353.148,73.743,343.538,63.943,331.521,63.882z M511.249,200.839
	c-0.054-10.031-8.606-18.562-18.677-18.63c-10.281-0.074-18.989,8.613-18.921,18.874c0.075,10.234,8.375,18.439,18.67,18.453
	C502.928,219.556,511.31,211.269,511.249,200.839z M126.185,147.276c0,9.42,7.331,16.812,16.69,16.826
	c9.481,0.013,16.832-7.419,16.798-16.975c-0.034-9.27-7.378-16.52-16.704-16.492C133.38,130.655,126.192,137.782,126.185,147.276z
	 M301.505,535.806c0.081-7.846-6.375-14.309-14.31-14.336c-8.145-0.027-14.54,6.287-14.52,14.323
	C272.697,543.72,279.058,550,287.06,550C295.056,550.007,301.438,543.74,301.505,535.806z M525.369,312.872
	c-7.623-0.054-14.235,6.558-14.174,14.174c0.068,7.527,6.348,13.705,13.957,13.719c7.976,0.014,13.957-5.859,13.977-13.74
	C539.149,319.226,533.025,312.926,525.369,312.872z M190.55,50c-6.721-0.027-11.909,5.107-11.909,11.794
	c0,6.646,5.242,11.813,11.956,11.779c6.517-0.034,11.624-5.229,11.624-11.828C202.222,55.086,197.196,50.034,190.55,50z
	 M551.966,249.531c-5.479-0.062-10.444,4.842-10.512,10.396c-0.074,5.744,4.707,10.525,10.539,10.539
	c5.792,0.021,10.335-4.483,10.376-10.301C562.424,254.312,557.812,249.605,551.966,249.531z M137.117,456.427
	c0.027-5.562-4.768-10.349-10.417-10.404c-5.724-0.047-10.43,4.768-10.39,10.627c0.047,5.724,4.693,10.246,10.478,10.206
	C132.465,466.823,137.097,462.15,137.117,456.427z"/>
</svg>
